<?xml version="1.0" encoding="utf-8"?>
<!-- Generator: Adobe Illustrator 16.0.0, SVG Export Plug-In . SVG Version: 6.00 Build 0)  -->
<!DOCTYPE svg PUBLIC "-//W3C//DTD SVG 1.1//EN" "http://www.w3.org/Graphics/SVG/1.1/DTD/svg11.dtd">
<svg version="1.1" id="Layer_1" xmlns="http://www.w3.org/2000/svg" xmlns:xlink="http://www.w3.org/1999/xlink" x="0px" y="0px"
	 width="325px" height="70px" viewBox="0 0 325 70" enable-background="new 0 0 325 70" xml:space="preserve">
<defs  display="none">
	
	
		<link  type="text/css" href="http://fonts.googleapis.com/css?family=Open+Sans" rel="stylesheet" xmlns="http://www.w3.org/1999/xhtml">
		</link>
</defs>
<g transform="translate(-107,-361)">
	<g id="background" display="none">
		<rect id="bgMiddle" x="207" y="361.5" display="inline" fill="#F0F0F0" width="126" height="69"/>
		<g id="bgLeft" display="inline">
			<g>
				<defs>
					<rect id="SVGID_1_" x="107" y="361" width="100" height="70"/>
				</defs>
				<clipPath id="SVGID_2_">
					<use xlink:href="#SVGID_1_"  overflow="visible"/>
				</clipPath>
				<path id="bgLeftPath" clip-path="url(#SVGID_2_)" fill="#F0F0F0" d="M504.016,393.119l-17.203-28.654
					c-0.95-1.582-3.241-2.881-5.092-2.881h-0.057l-371.181,0.004c-1.719,0-2.408,1.135-1.738,2.564l17.322,28.959
					c0.951,1.59,0.951,4.18,0,5.762l-17.211,28.652c-0.951,1.582-0.216,2.881,1.627,2.881l371.237-0.004
					c1.851,0,4.142-1.291,5.092-2.879l17.203-28.646C504.968,397.291,504.968,394.701,504.016,393.119z"/>
			</g>
		</g>
		<g id="bgRight" transform="translate(-73,0)" display="inline">
			<g>
				<defs>
					<rect id="SVGID_3_" x="405" y="361" width="100" height="70"/>
				</defs>
				<clipPath id="SVGID_4_">
					<use xlink:href="#SVGID_3_"  overflow="visible"/>
				</clipPath>
				<path id="bgRightPath" clip-path="url(#SVGID_4_)" fill="#F0F0F0" d="M504.016,393.119l-17.203-28.654
					c-0.95-1.582-3.241-2.881-5.092-2.881h-0.057l-371.181,0.004c-1.719,0-2.408,1.135-1.738,2.564l17.322,28.959
					c0.951,1.59,0.951,4.18,0,5.762l-17.211,28.652c-0.951,1.582-0.216,2.881,1.627,2.881l371.237-0.004
					c1.851,0,4.142-1.291,5.092-2.879l17.203-28.646C504.968,397.291,504.968,394.701,504.016,393.119z"/>
			</g>
		</g>
	</g>
	<defs>
		<filter id="Adobe_OpacityMaskFilter" filterUnits="userSpaceOnUse" x="107" y="361" width="325" height="216.667">
			<feColorMatrix  type="matrix" values="1 0 0 0 0  0 1 0 0 0  0 0 1 0 0  0 0 0 1 0"/>
		</filter>
	</defs>
	<mask maskUnits="userSpaceOnUse" x="107" y="361" width="325" height="216.667" id="SVGID_8_">
		<g filter="url(#Adobe_OpacityMaskFilter)">
			<g id="background_1_">
				<rect id="bgMiddle_1_" x="207" y="361.5" fill="#F0F0F0" width="126" height="69"/>
				<g id="bgLeft_1_">
					<g>
						<defs>
							<rect id="SVGID_5_" x="107" y="361" width="100" height="70"/>
						</defs>
						<clipPath id="SVGID_6_">
							<use xlink:href="#SVGID_5_"  overflow="visible"/>
						</clipPath>
						<path id="bgLeftPath_1_" clip-path="url(#SVGID_6_)" fill="#F0F0F0" d="M504.016,393.119l-17.203-28.654
							c-0.95-1.582-3.241-2.881-5.092-2.881h-0.057l-371.181,0.004c-1.719,0-2.408,1.135-1.738,2.564l17.322,28.959
							c0.951,1.59,0.951,4.18,0,5.762l-17.211,28.652c-0.951,1.582-0.216,2.881,1.627,2.881l371.237-0.004
							c1.851,0,4.142-1.291,5.092-2.879l17.203-28.646C504.968,397.291,504.968,394.701,504.016,393.119z"/>
					</g>
				</g>
				<g id="bgRight_1_" transform="translate(-73,0)">
					<g>
						<defs>
							<rect id="SVGID_7_" x="405" y="361" width="100" height="70"/>
						</defs>
						<clipPath id="SVGID_9_">
							<use xlink:href="#SVGID_7_"  overflow="visible"/>
						</clipPath>
						<path id="bgRightPath_1_" clip-path="url(#SVGID_9_)" fill="#F0F0F0" d="M504.016,393.119l-17.203-28.654
							c-0.95-1.582-3.241-2.881-5.092-2.881h-0.057l-371.181,0.004c-1.719,0-2.408,1.135-1.738,2.564l17.322,28.959
							c0.951,1.59,0.951,4.18,0,5.762l-17.211,28.652c-0.951,1.582-0.216,2.881,1.627,2.881l371.237-0.004
							c1.851,0,4.142-1.291,5.092-2.879l17.203-28.646C504.968,397.291,504.968,394.701,504.016,393.119z"/>
					</g>
				</g>
			</g>
		</g>
	</mask>
	<g id="backgroundImage" display="none" mask="url(#SVGID_8_)">
	</g>
	<g id="world" display="none" opacity="0">
		<path display="inline" fill="#E0E0E0" d="M274.912,331.339c0.17-0.072,0.597,0.106,0.714,0c0.382-0.343,0.642-1.474,1.084-2.15
			c0.601-0.923,1.242-0.958,1.423-1.791c0.164-0.674-0.64-2.503-0.339-3.937c0.099-0.567,0.699-0.83,1.062-1.421
			c0.672-1.136,1.125-1.964,1.785-3.219c0.711-1.327,0.883-3.33,0.359-5.736c0.529-0.424,1.005-0.893,1.439-1.429
			c-0.75-3.098-0.017-6.104,1.428-8.59c0.314-0.557,0.511-1.167,0.714-1.43c1.181-1.654,4.053-2.475,3.94-5.015
			c-1.059-1.82-3.799-1.493-5.736-0.699c-0.318-0.642-0.859-1.062-1.07-1.808c0.283-1.035,1.693-0.918,1.422-2.498
			c-0.51-1.023-1.623-1.341-2.496-2.143c-1.474-1.372-2.033-2.6-4.293-3.219c-0.673-0.191-1.955-0.404-2.496-0.357
			c-0.724,0.035-1.873,1.17-3.229,1.426c-0.972,0.185-2.033-0.205-2.505,0c-1.419,0.627-2.088,2.574-3.574,3.21
			c-1.213,0.535-1.937-0.519-2.867,0.731c-0.901-1.482-3.142-1.63-5.729-1.443c-0.176-4.702-4.25-5.523-7.512-7.158h-5.714
			c-1.784,1.927-5.659,1.746-8.599,2.518c-1.04,0.619-0.9,2.425-1.793,3.22c-0.715-0.369-0.554-1.591-1.776-1.443
			c-3.732,1.653-4.975,5.775-5.387,10.74c0.33,1.474,2.659,0.943,2.88,2.508c-0.593,1.917-2.599,2.416-4.665,2.86
			c-1.783-0.123-1.287-2.538-3.571-2.15c-2.346,1.876,2.748,4.446-0.369,6.08c-1.729-0.854-2.597-2.487-1.774-4.994
			c-1.247-1.575-2.889-0.581-5.374-0.732c-1.076,2.063,0.81,3.239,1.069,5.016c1.706,0.215,3.162,0.659,3.584,2.142
			c1.12,0.185,1.262-0.639,2.495-0.337c1.393,2.867,7.244,4.375,10.741,2.845c0.443-1.012,0.443-2.215,0-3.207
			c-2.096-1.564-5.868,0.732-6.429-2.154c2.006-1.176,2.988,1.423,5.717,0.712c0.86,1.034,2.065,1.18,3.578,0.711
			c1.047-1.482,1.406-3.098,2.859-4.283c0.454-0.369,1.469-0.317,2.146-0.711c0.593-0.342,0.742-1.097,1.438-1.086
			c0.531-1.018,0.652-2.446,1.421-3.218c2.82-0.292,4.008-2.194,6.451-2.857c0.398,1.03,0.642,2.216,0.711,3.58
			c-1.75,1.693-5.607,1.294-7.871,2.495c0.91,2.968-0.945,6.608,1.078,8.588c2.96,0.68,5.05,0.029,6.441,2.152
			c0.741,1.137,1.205,4.566,1.084,7.165c-0.062,1.024-0.699,2.103-0.732,3.219c-0.031,1.034,0.462,2.205,0.36,2.854
			c-0.167,1.069-1.392,1.888-1.071,2.863c-0.142,1.462,1.524,1.104,1.793,2.147c-0.982,1.371-2.614,2.844-2.867,5.374
			c-0.188,1.907,0.792,6.148,1.434,8.222c0.521,1.756,0.665,2.832,1.788,3.583c0.359,0.227,0.989,0.069,1.431,0.357
			c0.934,0.596,1.364,1.933,2.51,1.438c1.709-1.111,2.063-3.209,3.217-5.015c0.161-0.263,0.144-0.794,0.364-1.063
			c0.097-0.161,0.631-0.232,0.7-0.375c0.565-1.02,0.34-2.322,1.438-3.209c0.949-0.781,3.576-0.66,5.371-1.806
			c1.385-0.868,2.116-2.785,3.932-3.566c1.334-0.586,3.531-0.38,5.017-1.073c0.159-0.093,0.229-0.663,0.36-0.713
			c0.184-0.082,0.541,0.111,0.711,0C274.693,331.959,274.807,331.397,274.912,331.339z"/>
		<path display="inline" fill="#E0E0E0" d="M367.234,294.115c0.222,0.132,0.474,0.604,0.725,0.726
			c2.154,0.955,3.646,0.058,5.364-0.361c0.661,0.902,0.661,2.445,2.147,2.508c1.215-0.454,2.057-1.297,2.51-2.508
			c-0.717-0.804-1.381-2.059-2.873-2.15c-1.092-0.069-1.422,0.364-2.494,0.717c-1.168-1.574-2.492-3.001-5.018-3.224
			c-0.662-1.352-1.4-2.634-3.57-2.498c-1.354,1.767-0.773,3.941,0.353,5.359C364.635,293.007,366.795,293.837,367.234,294.115z"/>
		<path display="inline" fill="#E0E0E0" d="M218.014,297.345c0.834,0,1.677,0,2.511,0c0.188,1.115,0.635,1.999,1.073,2.861
			c0.992,0.26,1.092-0.813,1.434-1.443c1.466-2.698-0.402-3.532-2.155-4.646c0.099-1.504-1.036-1.815-1.436-2.85
			C215.748,290.923,216.332,296.054,218.014,297.345z"/>
		<path display="inline" fill="#E0E0E0" d="M416.982,293.046c-0.989-2.396-6.129-1.381-7.861-0.362
			C408.595,298.763,416.583,297.299,416.982,293.046z"/>
		<path display="inline" fill="#E0E0E0" d="M421.987,292.329c-0.119-0.722-1.295-0.857-2.495-0.356
			C419.42,294.388,422.181,293.363,421.987,292.329z"/>
		<path display="inline" fill="#E0E0E0" d="M209.068,296.26c0.942-0.369,1.604-1.02,1.786-2.145c0.855-0.337,1.766-0.63,1.438-2.143
			c-0.595,0-1.188,0-1.788,0c0.05,1.845-2.353,1.234-3.219,2.143C207.214,295.504,207.858,296.174,209.068,296.26z"/>
		<path display="inline" fill="#E0E0E0" d="M338.264,298.061c0.857,0.098,0.67-0.201,1.43-0.716
			c1.296-0.897,1.232-0.943,1.787-2.153c0.299-0.633,0.975-0.854,0.711-1.424c-1.034-0.893-1.785,1.542-3.219,1.424
			c-0.731-0.459-0.641-1.73-2.147-1.424C335.283,295.881,336.682,297.859,338.264,298.061z"/>
		<path display="inline" fill="#E0E0E0" d="M199.423,300.206c-0.272,2.648,1.112,3.65,2.133,5.005
			c3.302-0.813,7.893,0.781,8.599-2.145c0.269-1.216-0.543-0.864-1.086-1.797c-0.36-0.601,0.092-1.838-1.062-1.775
			c-1.495-0.287-0.682,1.714-2.157,1.422c-1.071-0.831-1.513-2.295-2.147-3.571c0.302-1.01,1.162-1.474,1.076-2.865
			c-1.535-1.087-2.64-0.662-3.934,0c-1.413,0.722-3.953,1.522-3.953,2.865C197.424,298.621,199.002,298.842,199.423,300.206z"/>
		<path display="inline" fill="#E0E0E0" d="M333.609,299.125c0-0.704,0-1.427,0-2.138c-1.026-0.834-2.703-0.059-3.586,0.356
			C330.35,298.899,331.893,300.022,333.609,299.125z"/>
		<path display="inline" fill="#E0E0E0" d="M474.961,300.563c-1.859-1.069-3.428,0.317-4.662,0.353
			c-1.091,0.031-2.355-0.529-3.567-0.71c-0.823-0.121-1.605,0.09-2.512,0c-1.8-0.203-3.646-0.902-5.365-1.081
			c-2.812-0.261-4.037,0.92-6.076,1.081c-0.433,0.533-0.459,1.468-1.084,1.796c-1.396-0.272-2.215,1.004-3.218,1.423
			c-0.725,0.312-1.646,0.412-2.5,0.725c-0.801,0.263-1.436,0.979-2.517,0.696c-1.493-0.73-2.394-2.674-4.288-2.844
			c-1.788-0.162-3.315,1.716-5.008,1.785c-0.58,0.021-0.915-0.2-1.446-0.362c-0.489-0.164-1.462-0.208-1.771-0.358
			c-1.084-0.475-1.364-1.596-2.87-1.797c-1.086-0.121-2.065,0.57-3.216,0.732c-1.681,0.221-3.137-0.449-4.65,0.348
			c-0.92,1.104,0.103,2.554,0,3.936c-1.305,0.609-2.677,1.155-4.298,1.442c-1.119,0.414-1.014,2.074-2.501,2.133
			c-2.926-1.951-3.166-6.608-9.315-5.352c-0.656,1.005-0.656,2.663-2.139,2.85c-1.611,0.087-2.295-0.995-3.946-1.073
			c-1.909-0.092-4.288,1.845-6.079,0c0.479-5.469-3.472-9.137-8.227-7.16c-1.752-0.514-2.568-1.957-4.654-2.138
			c-0.04,0.555-0.912,0.277-0.712,1.073c-1.272,1.171,0.327,2.926,0,3.941c-0.543,1.619-1.896,1.806-3.931,2.147
			c-1.751,2.827-6.165,3.921-4.663,8.936c-0.722,0.697-2.356,0.511-2.509,1.79c-0.822,0.375-0.729,1.65-0.698,2.853
			c-1.618,0.675-2.472,2.098-4.308,2.518c-1.395-0.985-1.933-2.833-4.282-2.867c-0.341,1.464-1.171,5.024-1.082,6.438
			c0.092,1.474,1.729,2.76,0.72,3.941c-2.184-0.42-3.404-0.785-5.722-0.36c-0.214,0.63,0.426,2.098-0.361,2.155
			c-1.653,1.421-3.927,0.493-5.721,1.084c-0.142,0.024-0.55,0.609-0.73,0.702c-0.462,0.242-1.024,0.059-1.417,0.356
			c-1.13,0.833-1.281,2.679-2.877,2.862c-0.693-0.854-0.471-2.629-2.146-2.498c-1.467,0.702,0.953,4.011-1.422,4.283
			c-1.558-0.111-1.355-1.969-2.149-2.871c-2.788-1.483-5.636-2.946-9.306-3.566c-0.989-1.124-1.723-2.22-2.856-2.508
			c-3.356-0.831-5.838,1.395-7.162,2.155c-1.015,0.576-1.553,0.635-2.147,1.084c-0.73,0.53-1.344,0.999-1.793,1.423
			c-1.215,1.124-0.922,2.498-1.424,3.924c-0.211,0.601-1.07,1.282-1.437,2.146c-0.403,0.983-0.3,2.123-0.714,2.869
			c-0.067,0.116-0.61,0.237-0.723,0.354c-0.248,0.288-0.105,0.777-0.35,1.074c-1.843,2.302-3.908,2.629-5.367,4.657
			c0.114,2.864,0.303,5.655,1.778,7.158c2.315,0.524,2.426-1.172,4.293-1.069c0.501,0.692,0.349,2.038,0.731,2.854
			c-0.53-0.519-2.35-0.519-2.881,0c-0.812,1.521,0.209,2.74,0,4.657c-0.901,0.64-1.981,1.116-3.211,1.424
			c-0.949,0.963-1.434,2.396-2.867,2.859c-0.147-1.774-3.369-5.156-4.651-7.864c-0.36-0.794,0.062-1.828-0.353-2.503
			c-0.694-1.155-2.347-1.241-3.229-0.726c-1.002,0.68-0.662,2.668-0.712,4.303c-2.458,0.751-4.643,3.288-3.584,6.428
			c2.078,0.422,2.611-0.721,3.945-1.065c0.512-1.149,0.151-3.178,1.783-3.218c0.694,1.479-1.256,4.323,0,6.441
			c1.205,0.228,3.33-0.454,3.943,0.36c-0.686,1.225-2.413,1.425-3.582,2.147c0.07,2.37,3.46,2.937,2.859,5.374
			c-0.814,3.409-5.045,0.548-7.866,2.138c-0.894,0.722-0.198,2.009-0.36,3.225c-0.258,1.956-1.172,3.585-0.361,4.999
			c1.227,1.382,2.975,0.762,3.223,2.508c0.281,1.922-1.947,2.375-3.584,4.303c-0.751,0.893-0.838,3.598-1.059,3.931
			c-0.726,1.079-2.537,1.614-3.578,2.507c-1.236,1.045-2.039,2.475-2.86,3.946c-0.545,0.942-1.319,2.254-1.446,3.207
			c-0.199,1.515,0.512,3.899,0.36,5.729c-0.06,0.639-0.63,1.258-0.699,1.787c-0.651,3.865,1.64,4.516,3.206,6.452
			c0.583,0.722,0.654,1.131,1.077,1.781c0.832,1.267,1.386,1.7,2.504,2.503c1.063,0.76,1.496,1.241,2.495,1.805
			c2.429,1.312,2.908,0.008,5.729,0c1.002-0.015,2.077,0.461,2.869,0.34c0.773-0.103,1.598-0.783,2.506-1.076
			c3.562-1.147,4.176-0.488,6.442,1.799c1.612-0.062,3.188-0.082,3.575,1.072c0.904,1.718-0.815,3.603-0.366,5.728
			c0.399,1.786,2.376,2.748,3.229,4.293c0.459,0.834,1.146,2.308,1.443,3.571c0.219,1.068,0.53,3.209,0.342,4.298
			c-0.132,0.829-1.126,1.196-1.426,1.78c-0.197,0.395-0.277,1.181-0.359,1.443c-0.91,2.946,0.108,5.01,1.071,7.16
			c0.461,1.044,1.173,2.088,1.435,3.219c0.33,1.446,0.15,2.719,0.352,3.93c0.352,1.998,2.215,3.467,2.87,5.38
			c0.632,1.85-0.03,3.979,1.795,5.355c2.577-0.372,5.427-0.293,7.503-0.712c0.432-0.095,2.455-1.033,2.518-1.078
			c1.023-0.979,1.967-1.717,3.222-3.22c1.645-1.952,3.168-3.79,3.567-6.435c1.289-1.174,2.369-0.967,2.87-2.512
			c0.446-1.402-0.491-3.363,0-4.649c0.841-2.205,5.013-2.917,6.073-4.648c1.049-1.669,0.876-5.85,0.361-7.151
			c-0.42-1.06-0.961-2.181-1.063-3.233c-0.196-1.785,0.372-2.927,0.702-3.581c0.805-1.564,0.997-1.984,2.148-3.21
			c0.843-0.892,1.845-2.067,2.496-2.507c2.076-1.379,4.53-3.492,5.388-5.354c0.053-0.146,0.63-0.221,0.702-0.362
			c1.113-1.972,2.225-4.414,2.515-6.811c-2.215-2.346-7.69,2.456-8.953-1.072c0.644-1.121,2.418-1.203,3.938-1.783
			c1.608-0.625,3.752-1.426,5.015-2.148c0.354-0.213,0.444-0.55,0.701-0.711c1.397-0.878,2.753-1.023,3.944-1.796
			c0.188-0.121,0.5-0.556,0.713-0.722c1.092-0.883,1.725-1.557,2.508-2.859c0.66-1.092,1.223-1.979,1.086-2.862
			c-0.354-2.188-2.891-1.221-3.233-3.931c3.65,0.604,6.4,0.677,10.382,0.354c1.864,1.596,3.879,3.049,5.002,5.367
			c1.33,0.116,2.461,0.409,3.231,1.071c0.131,3.187,1.675,5.377,2.508,7.162c0.229,0.521,0.147,0.897,0.349,1.434
			c0.183,0.454,0.545,0.702,0.713,1.069c0.812,1.664,1.404,3.264,2.514,4.646c1.331,0.26,1.539-0.611,2.865-0.354
			c-0.039,1.711,0.439,2.901,1.794,3.224c0.522-0.332,1.745-1.795,0.7-2.502c0.199-1.63-1.902-0.958-1.785-2.503
			c-0.358-1.265,0.354-3.562,0.354-3.94c0-0.118-0.423-0.787-0.354-1.436c0.162-1.298,3.203-3.922,4.294-5.005
			c2.6-2.601,3.864-4.365,7.524-4.288c1.964,1.951,3.721,4.137,4.644,7.139c1.084,0.51,1.289-0.162,2.866,0
			c1.173,1.813,1.965,3.984,2.507,6.446c1.382-0.151,0.984-2.125,2.856-1.795c3.405,1.185,2.421,3.972,5.38,3.942
			c1.034-0.016,2.126-1.437,2.495-1.791c0.954-0.887,1.667-1.492,1.798-2.517c0.13-1.084-0.819-3.659-1.081-3.919
			c-0.153-0.164-0.203-0.574-0.364-0.722c-0.643-0.634-1.614-0.813-2.136-1.435c-1.848-2.16-0.725-5.016,2.136-4.651
			c1.05,0.782-1.162,3.243,1.086,3.224c1.573-0.094,0.686-2.644,1.419-3.57c2.882-1.229,5.467-1.883,7.165-3.576
			c1.632-1.646,1.612-2.268,2.506-4.657c0.835-2.215,1.202-2.885,0.703-5.01c-0.142-0.649-0.188-1.78-0.353-2.158
			c-0.303-0.793-1.37-1.555-1.796-2.145c-0.327-0.469-0.501-1.126-0.704-1.429c-0.558-0.801-0.688-0.419-0.722-1.421
			c-0.029-1.438,2.485-2.609,1.426-3.579c-1.476-1.034-3.542,0.707-4.279-1.078c0-1.791,1.134-2.443,2.145-3.225
			c1.154,1.302,1.999,1.513,4.283,1.081c0.801,1.704,2.297,2.938,3.239,4.646c0.487,0.917,0.268,2.274,1.434,2.864
			c1.054-0.129,1.808-0.568,2.49-1.074c0.458-3.903-2.218-4.691-3.225-7.157c1.128-1.394,1.216-3.789,2.147-5.369
			c0.865-0.581,2.309-0.57,3.229-1.079c0.984-1.297,1.868-3.312,2.511-5.357c0.551-1.827,1.445-4.885,1.419-6.448
			c-0.005-1.16-1.34-2.199-0.346-3.224c0.423,1.851,0.963,3.577,2.506,4.294c2.737-3.771-2.437-6.479-2.88-10.367
			c-3.668-1.02-8.161,0.061-8.942-2.872c-0.062-0.298,0.57-3.059,0.719-3.582c0.042-0.126,0.674-0.521,0.715-0.711
			c0.316-1.19,0.168-3.507,0.725-4.298c1.07-1.555,2.945-1.19,4.64-1.786c1.298-0.443,1.888-1.525,2.865-1.429
			c1.56,0.072,2.415,1.258,3.948,0.365c1.331-1.506-0.802-6.487,1.793-7.521c1.787-0.36,1.739,1.113,3.209,1.073
			c0.933-0.171,1.204-1.967,2.147-1.073c-0.796,2.244-0.251,4.767-0.715,7.156c-0.208,1.116-0.939,2.141-1.071,3.215
			c-0.569,4.673,1.336,6.518,2.859,8.955c1.082,1.733,1.964,3.961,3.579,4.65c1.788-1.392,1.021-4.723,1.434-6.795
			c0.111-0.556,0.712-0.913,0.712-1.438c0.021-0.544-0.591-1.522-0.712-2.503c-0.137-1.073,0.171-2.352,0-2.869
			c-0.398-1.155-2.019-1.947-2.508-3.215c-0.62-1.579,0.172-2.692-0.711-3.94c1.605-1.503,3.3-2.895,6.091-3.216
			c0.538-2.316,1.147-4.562,2.135-6.438c0.647-0.903,2.437-0.653,2.516-2.16c-0.438-2.704-3.315-3.036-3.941-5.353
			c-0.118-0.454,0.36-1.513,0.355-2.15c0-0.982-0.475-1.382-0.355-2.507c1.233-1.588,3.331-0.187,5.368-1.06
			c0.855-1.508-0.573-2.107-0.725-3.581C476.206,302.641,475.686,301.501,474.961,300.563z M331.1,337.776
			c1.185,0.372,2.93,0.181,3.938,0.719c0.024,1.93-2.247,1.575-3.938,1.788C330.587,339.808,330.587,338.271,331.1,337.776z
			 M331.46,372.837c1.835-0.282,1.455,1.657,2.847,1.809c1.649,0.069,1.649-1.474,2.158-2.518c0.359,0,0.725,0,1.083,0
			c-0.2,3.903,4.032,3.368,5.007,6.089c-1.24,3.005-3.945,0.741-6.09,0.357c-2.436-0.439-4.281,0.812-7.15,1.076
			C327.238,377.706,329.161,373.621,331.46,372.837z M314.279,356.739c-0.118-2.405,0.744-3.421,1.435-5.712
			c0.05-1.597-1.458-2.168-1.435-3.586c0.031-2.044,1.668-2.897,3.22-3.94c0.298-1.483,0.271-3.304,1.437-3.938
			c0.584-0.092,0.621,0.342,1.068,0.362c0.404,2.674-1.835,2.692-2.505,4.293c-0.089,3.447,0.821,5.867,3.228,6.811
			c-0.188,3.233-3.098,4.521-1.791,8.225c-1.057,0.766-2.012-0.132-3.222,0c-1.766,0.198-3.638,2.12-5.015,0.359
			C311.111,357.865,313.43,358.036,314.279,356.739z M330.023,393.24c-1.604-0.072-2.848-0.656-4.291-1.063
			c-1.502-0.438-3.301-1.208-3.939-1.081c-1.588,0.309-1.596,1.79-2.857,2.867c-1.373-0.161-2.611-0.517-3.584-1.434
			c-1.141-1.106-3.832-1.151-5.727-2.498c0.211-1.996-0.164-3.42-1.061-4.303c-3.002,0.166-5.369-0.062-7.883,0.357
			c-2.65,0.454-5.158,2.569-7.877,1.429c1.232-1.523,3.082-1.034,4.291-2.508c0.557-0.645,0.324-2.028,0.723-2.849
			c0.484-0.961,1.523-1.385,2.146-2.15c0.764-0.938,0.862-1.992,1.795-2.503c1.348-0.688,3.995-0.06,4.655-1.438
			c2.658,1.398,4.075,4.038,7.149,5.02c0.646,0.662,0.963,1.651,1.785,2.141c3.953-3.175-2.776-4.713-3.578-7.507
			c0.06-0.425,0.651-0.312,1.074-0.375c1.102,1.767,3.601,2.142,5.012,3.584c-0.008,0.84,0.61,1.063,0.353,2.157
			c1.255,0.561,2.099,4.931,3.94,5c3.022,0.111,1.416-2.645,1.785-4.66c0.942-0.032,1.256-0.535,1.795,0
			c0.334,0.361,0.131,1.401,0.354,1.801c0.272,0.448,0.448,0.897,0.731,1.438c0.541,1.074,0.998,1.186,1.785,2.143
			c3.688-0.57,5.588,1.228,8.586,0.359c0.603,2.078-0.385,4.256-1.438,5.719C333.639,392.447,332.092,393.353,330.023,393.24z
			 M346.844,414.002c-0.857-0.011-1.503-0.214-2.146-0.713c-1.202-0.932-1.202-2.209-2.146-3.581
			c-0.393-0.55-1.213-0.994-1.425-1.435c-0.372-0.74-0.345-1.988-0.731-2.865c-0.434-0.979-1.254-1.577-1.787-2.502
			c-0.151-0.268,0.142-0.792,0-1.084c-0.24-0.483-1.846-1.465-1.422-3.211c0.359,0,0.699,0,1.074,0
			c0.731,0.854,1.021,1.817,1.783,2.873c0.598,0.83,1.706,1.522,2.145,2.498c0.244,0.541,0.051,1.254,0.363,1.785
			C344.107,408.369,347.49,410.564,346.844,414.002z M348.98,373.574c1.321-1.2,2.194-2.83,5.024-2.522
			c0.987,1.682-1.223,1.74-1.084,3.594c-0.037,1.386,1.535,2.078,2.147,3.219c0.414,0.741,0.414,1.775,0.722,2.495
			c0.653,1.579,2.31,3.023,1.425,4.647c-1.693,1.068-3.619-0.303-4.646-1.063C353.646,378.217,349.413,377.792,348.98,373.574z
			 M358.658,401.822c-1.803-0.006-3.819-3.811-5.012-4.995c-0.412-0.529-0.412-0.908,0-1.434c0.358,0,0.722,0,1.063,0
			c1.199,2.498,4.069,3.326,6.81,4.283C360.559,400.975,359.824,401.848,358.658,401.822z"/>
		<path display="inline" fill="#E0E0E0" d="M419.852,299.842c0.211-1.28-1.065-1.094-2.145-1.079
			C417.215,300.378,419.147,300.509,419.852,299.842z"/>
		<path display="inline" fill="#E0E0E0" d="M309.625,312.732c2.35-0.156,1.342-3.662,3.223-4.306
			c0.469,0.965,0.771,2.096,2.504,1.799c1.348-2.408-2.225-2.701-2.145-5.015c1.943-0.561,3.992-1.005,3.939-3.574
			c-0.973-1.305-3.42-1.119-5.727-1.073c-0.97,0.697-1.635,1.711-2.855,2.149c-0.867,0.469-2.48,0.142-3.229,0.712
			c-1.155,2.8,1.272,4.523,2.497,6.079C307.882,311.143,308.705,311.991,309.625,312.732z"/>
		<path display="inline" fill="#E0E0E0" d="M255.235,436.895c-0.989-0.73-2.226-1.893-2.86-2.145
			c-1.622-0.62-3.72-0.206-5.376-0.705c-0.742-0.238-1.364-1.096-2.134-1.428c-0.954-0.426-1.864-0.143-2.51-0.362
			c-2.267-0.809-2.066-2.205-2.864-3.94c-0.385-0.834-0.925-1.989-1.438-2.508c-0.126-0.142-1.532-1.141-2.146-1.424
			c-1.237-0.564-2.093-0.199-3.578-0.361c-1.538-0.155-3.284-2.561-4.283-3.22c-0.883-0.585-1.637-1.942-2.145-2.149
			c-1.739-0.666-4.284,0.242-5.73,0c-1.604-0.264-2.114-1.25-3.226-1.432c-2.81-0.472-4.725,0.108-5.729,0.709
			c-1.021,0.639-1.478,1.933-3.209,2.514c-0.603,0.197-1.384-0.227-1.798,0.358l-0.277,0.272c-0.172-0.042-0.351-0.059-0.531-0.01
			l-0.263-0.264c-2.564-0.375-3.861-1.086-4.293-3.219c-0.273-1.366,1.165-2.912,0.362-4.294c-0.732-1.545-4.043-0.511-5.018-1.795
			c-0.849-1.901,1.624-3.308,1.086-6.086c-3.71-1.488-3.71,1.853-5.377,2.866c-3.98,2.426-7.03-1.442-6.44-6.073
			c0.102-0.873,1.256-5.15,1.426-5.374c0.601-0.796,3.708-2.108,4.306-2.153c0.96-0.037,2.086,0.861,3.207,0.72
			c0.955-0.348,1.645-1.24,2.879-1.431c1.924-0.293,4.171,0.649,5.356,1.431c0.39,2.11,0.39,4.628,2.87,4.647
			c1.984-2.361-0.907-4.626,0-7.512c0.187-0.615,0.858-0.953,1.424-1.435c1.18-0.997,2.096-1.688,3.229-2.502
			c0.7-0.51,1.535-0.732,1.773-1.079c0.813-1.137,0.523-2.771,1.081-3.937c0.342-0.712,1.216-1.381,1.788-2.152
			c1.483-1.927,2.155-2.74,4.644-3.209c0.661-2.049,1.577-4.122,3.94-4.294c1.195-0.091,1.806,0.602,3.231,0.723
			c1.634-1.116,4.28-1.213,4.992-3.22c-1.825-0.337-2.663-0.364-3.559-1.795c-0.29-0.454,0.188-1.667,0-2.507
			c-0.251-1.058-1.947-1.151-0.724-1.787c1.827,0.402,2.779,0.782,4.282,0.348c1.256-0.337,3.031-1.361,3.954-0.717
			c-0.271,1.533-1.675,1.923-1.437,3.946c1.676,0.816,3.45,1.558,6.081,1.438c1.213-2.658-1.421-3.891-2.15-5.746
			c1.024-2.276,0.816-4.174,0-5.354c-0.247-0.363-0.511-1.195-0.709-1.439c-0.854-0.972-2.218-1.21-2.856-2.489
			c-0.663-1.332-0.462-2.822-0.726-3.946c-0.263-1.175-0.441-2.194-1.076-3.581c-2.534-0.399-1.885,2.416-4.64,1.796
			c-1.014-1.092-0.533-2.287-0.372-3.941c-1.699-2.22-3.889-5.525-7.864-4.298c-0.97,1.288-0.28,2.785-0.712,4.298
			c-0.319,1.132-1.324,1.981-1.432,3.229c-0.124,1.229,0.752,2.75,0.348,3.931c-0.501,1.523-3.006,1.831-3.931,3.571
			c-1.074,2.017,0.707,3.178-1.434,4.65c-1.977-0.387-0.479-4.282-1.434-5.709c-0.35-0.668-1.183-0.409-1.785-0.723
			c-1.748-0.92-3.167-2.971-4.652-3.944c-0.244-0.162-0.475-0.214-0.715-0.365c-1.394-0.812-1.664-1.371-2.146-2.85
			c-1.25-3.819,1.66-5.586,3.932-7.517c1.772-1.499,3.599-3.254,6.078-3.21c0.963,0.34,0.893,1.731,1.795,2.146
			c1.724-0.525,2.838-0.683,4.291-0.731c0.315-2.322-2.135-3.439-1.424-4.995c2.188-1.054,3.632-1.785,4.286-3.945
			c0.508-1.624,1.2-3.244,2.155-4.294c2.447-0.429,3.088,0.961,3.581,2.503c-0.021,1.546-1.896,1.21-1.446,3.239
			c1.585,0.458,2.59-1.693,3.229,0c-0.24,2.497-2.237,3.249-3.568,4.643c-1.417,0.03-3.15-0.277-2.867,1.436
			c-0.151,1.922,2.998,0.57,3.941,1.414c0.766,0.811,0.828,2.668,1.772,3.586c0.675,0.643,2.447,1.468,3.229,1.423
			c0.662-0.019,2.56-1.141,2.858-1.423c1.612-1.453,0.191-3.688-0.363-5.731c1.349-0.035,1.096,1.545,2.874,1.081
			c1.562-0.975,2.465-1.503,2.505-2.867c0.018-0.922-1.121-1.693-1.788-2.502c-0.819-0.973-1.688-1.587-1.791-2.507
			c0.14-1.412,0.792-2.123,0.709-3.22c-0.19-2.729-3.489-4.119-4.652-6.81c-0.49-1.156-0.771-2.255-0.702-3.919
			c-1.083-1.585-3.469-1.005-5.387-1.435c-0.722-0.172-1.274-0.571-1.785-0.722c-4.472-1.434-7.16,3.596-6.791,8.234
			c0.653,1.038,1.898,1.521,1.784,3.219c-0.067,1.044-1.04,2.576-2.495,2.507c-0.491-1.463-2.22-2.789-2.518-4.643
			c-0.072-0.533,0.322-1.547,0.361-2.157c0.1-1.535-0.229-3.199,0.36-4.653c1.938-1.286,5.712-0.745,5.015-4.657
			c-1.432-1.25-3.489-1.133-5.015,0c-1.649-2.611-3.491-1.319-5.015,0c-1.743,1.53-2.026,1.818-1.422,3.583
			c0.107,0.329,0.107,1.02,0.36,1.439c0.462,0.826,1.704,1.007,1.783,2.143c0.05,0.707-0.211,1.016-0.359,1.435
			c-0.689,2.023-1.694,2.023-3.581,2.869c-0.683,1.233-0.201,2.609-1.786,3.209c-1.746,0.65-4.372-0.525-4.293-2.512
			c2.661,0.055,4.715-1.381,5.008-3.214c0.111-0.655-0.496-0.858-0.715-1.422c-0.672-1.803-0.119-4.268,0.35-5.379
			c0.583-1.312,2.279-2.004,2.15-3.936c-2.26-1.401-3.552,1.614-5.719,1.424c-2.45-0.196-3.259-2.342-3.569-5.729
			c-2.302-1.82-4.813-2.774-6.46-1.059c-1.764,1.835-5.783,4.854-4.283,7.512c1.104,1.064,3.521-0.364,4.283,0.357
			c-0.573,1.358,0.253,2.833,0,3.936c-0.082,0.399-0.854,0.985-1.062,1.434c-0.345,0.702,0.079,2.029-1.082,1.796
			c-1.679-0.111-2.108-1.479-2.864-2.507c-2.505-0.357-4.107-1.615-5.364-3.229c-3.502-0.029-6.598,0.328-9.655,0.722
			c-0.754-0.691-1.364-1.503-1.798-2.508c-1.284-0.131-1.594-1.512-2.507-2.149c-0.734-0.509-2.165-0.751-3.22-1.422
			c-0.148-0.111-0.191-0.59-0.361-0.731c-0.288-0.224-0.794-0.151-1.074-0.354c-0.171-0.108-0.171-0.58-0.348-0.71
			c-0.332-0.248-0.791-0.101-1.073-0.358c-0.731-0.665-0.905-1.59-1.427-2.148c-0.823-0.854-1.304-1.12-2.505-1.423
			c-2.088-0.541-3.844,0.317-5.017,0.711c-0.682,0.23-1.607,0.109-2.147,0.354c-1.374,0.608-2.396,1.937-3.938,2.507
			c-1.255,0.458-2.701-0.253-3.574,1.068c-0.369,2.639,1.104,5.327,0,7.513c-1.183,0.142-1.751-1.393-3.229-1.422
			c-0.311-0.009-1.253,0.488-1.793,0.709c-2.201,0.926-2.078,2.316-1.778,4.658c0.642,1.394,3.611,0.443,3.93,2.146
			c-0.627,2.45-3.395,1.079-4.999,1.795c-0.265,0.111-0.865,0.923-1.438,1.421c-0.64,0.565-1.553,1.047-1.793,1.434
			c-0.62,1.055-1.181,3.411-1.064,4.294c0.201,1.624,2.501,2.048,2.139,4.657c0.913,0.65,2.455,0.65,2.502,2.138
			c-1.129,3.276-5.322,3.507-7.147,6.086c3.974,0.04,5.617-2.234,8.586-3.209c1.426-0.365,1.071,1.054,2.51,0.702
			c2.115-1.097,1.094-4.784,3.207-5.365c1.975,1.521,5.573,0.34,7.158-0.727c0.724,0.453,1.438,1.155,2.514,1.809
			c0.828,0.482,2.141,0.761,2.864,1.436c0.402,0.37,1.126,2.176,1.434,2.503c1.394,1.438,0.955,3.063,1.414,5.359
			c0.104,0.444,0.193,0.801,0.364,1.431c0.161,0.57,0.258,1.506,0.357,1.788c0.387,0.913,1.485,1.635,1.787,2.495
			c0.18,0.516-0.14,1.505,0,2.16c0.133,0.53,0.646,1.171,0.726,1.424c0.627,2.122-0.021,3.298-0.362,5.014
			c0.57,1.543,1.924,2.356,2.143,3.946c0.095,0.568-0.275,1.139-0.348,1.771c-0.243,2.138-0.325,2.367-0.711,3.592
			c-0.615,1.922-1.466,3.199-1.789,4.64c-0.49,2.141-0.458,5.907,0,7.522c0.353,1.315,0.765,3.412,1.067,4.306
			c0.729,2.103,2.435,2.127,3.578,3.929c0.521,0.827,0.508,2.257,1.073,3.583c0.702,1.598,2.443,2.597,1.784,5.01
			c1.585,1.158,1.835,3.646,3.943,4.298c0.34-1.666-1.387-3.128-0.375-4.298c1.344,0.367,1.305,1.791,1.796,2.49
			c0.223,0.31,0.866,0.424,1.084,0.73c0.24,0.314,0.114,0.727,0.352,1.076c0.702,1.005,1.888,1.562,2.147,2.854
			c0.139,0.667-0.361,2.073,0,2.862c0.906,1.996,6.949,5.05,9.306,5.377c1.071,0.142,2.571-0.323,3.571,0
			c0.942,0.282,1.716,1.785,3.239,2.497c1.364,0.654,3.409,0.499,4.283,1.061c1.637,1.086,1.904,3.111,2.869,3.944
			c0.551,0.498,1.396,0.69,2.146,1.079c1.983,1.023,2.929,1.917,4.657,0h0.348c0.773,1.497,2.056,2.599,1.797,5.01
			c-0.15,1.232-1.046,1.811-1.797,2.871c-0.551,0.768-1.771,1.803-2.147,2.855c-0.551,1.584,0.212,2.103,0,3.574
			c-0.151,1.024-0.861,1.786-0.715,2.504c0.194,0.97,2.009,2.584,2.862,3.94c0.965,1.545,1.914,3.638,2.507,4.652
			c0.533,0.922,1.047,2.421,1.434,2.858c2.068,2.366,5.374,2.438,6.44,5.362c1.436,3.966-0.151,11.599,0,15.397
			c0.062,1.322,0.449,2.668,0.359,3.932c-0.131,1.732-0.989,3.289-1.081,5.016c-0.02,0.649,0.282,1.521,0.37,2.508
			c0.091,1.144-0.158,2.488,0,3.57c0.121,0.973,0.645,1.553,0.711,2.518c0.191,3.299-0.642,6.811,0,9.654
			c0.275,1.229,1.253,2.482,1.784,3.584c0.635,1.256,1.128,2.465,1.797,3.571c2.458,0.843,4.956,4.361,8.225,2.144
			c0.28-1.23-0.619-1.918-1.073-2.508c-0.655-0.855-1.312-1.119-1.793-2.144c-0.315-0.672-0.795-1.624-0.702-2.854
			c0.086-1.682,1.902-2.871,1.785-4.656c-0.103-1.354-1.555-1.979-1.446-3.219c1.177-1.816,2.297-3.675,2.156-6.802
			c1.736-0.171,1.495-2.327,2.509-3.219c1.466-0.552,3.278-0.763,4.291-1.787c0.424-1.004,0.404-2.478,0.365-3.944
			c0.851-0.443,2.164-0.459,2.856-1.07c1.314-1.037,1.314-2.668,2.147-3.93c0.439-0.68,1.363-1.166,1.79-1.801
			c0.504-0.727,1.176-1.791,1.439-2.492c0.691-1.945-0.221-2.85,0.701-4.299c0.34-0.541,1.102-0.574,1.443-0.717
			c0.107-0.049,0.219-0.635,0.353-0.721c0.31-0.192,0.812-0.211,1.071-0.354c0.42-0.232,0.652-0.541,1.074-0.723
			c0.642-0.252,1.935-0.028,2.857-0.711c1.917-1.396,2.948-5.377,3.23-8.586c0.06-0.702-0.263-2.084,0-2.877
			c0.219-0.666,1.454-1.947,2.144-2.851c0.87-1.186,1.867-1.815,2.138-3.229C258.306,438.334,256.932,438.172,255.235,436.895z"/>
		<path display="inline" fill="#E0E0E0" d="M348.279,325.969c-0.411-2.284-1.986-2.844-2.147-5.003
			c-0.062-0.772,0.493-1.544,0.712-2.502c0.243-1.086,0.04-2.11,0.374-2.872c0.101-0.258,0.802-0.664,1.062-1.074
			c0.354-0.584,0.42-1.403,0.703-1.785c1.32-1.706,3.92-2.589,3.939-4.643c-0.3-0.771-0.871-1.274-2.145-1.094
			c-0.573,0.897-1.064,1.402-2.146,2.153c-1.854,1.302-2.719,1.247-3.934,3.219c-1.202,1.947-1.064,3.447-1.434,6.453
			c-0.23,1.907-0.873,4.092-0.711,4.64C343.064,325.178,345.984,326.732,348.279,325.969z"/>
		<path display="inline" fill="#E0E0E0" d="M283.521,338.495c-2.724-0.669-6.32-0.019-8.609,0c-0.41,2.054,0.152,4.708,2.146,5.37
			C280.328,344.959,285.623,341.528,283.521,338.495z"/>
		<path display="inline" fill="#E0E0E0" d="M453.12,362.108c-0.051,0.781,0.297,1.133,1.08,1.084
			C454.261,362.411,453.906,362.046,453.12,362.108z"/>
		<path display="inline" fill="#E0E0E0" d="M454.2,372.128c2.158-0.818,4.573-1.384,5.011-3.931
			c-1.548-0.713-2.915-1.614-5.011-1.786C454.3,368.465,452.628,370.754,454.2,372.128z"/>
		<path display="inline" fill="#E0E0E0" d="M452.777,380.359c-0.652,0.804-1.05,1.647-1.805,2.15
			c-1.856,0.771-4.144,1.981-4.646,3.94c-0.36,1.411-0.874,3.067,1.425,3.581c0.871-0.688,0.653-2.457,1.796-2.864
			c1.525-0.345,2.731-1.176,3.941-1.793c1.394-0.709,2.688-1.279,3.936-2.147c-0.224-4.077,1.071-9.652-2.858-10.024
			c-0.512,1.716,0.427,3.501,0,5.015C454.293,379.129,453.293,379.709,452.777,380.359z"/>
		<path display="inline" fill="#E0E0E0" d="M306.76,380.359c-0.531,0.545-0.627,2.453,0.717,2.15
			C308.033,381.964,308.12,380.052,306.76,380.359z"/>
		<path display="inline" fill="#E0E0E0" d="M312.505,385.729c1.213,0.156,2.022-0.111,1.774-1.429
			C313.238,384.335,312.264,384.427,312.505,385.729z"/>
		<path display="inline" fill="#E0E0E0" d="M437.373,400.041c-0.513,0.52-0.513,2.355,0,2.865c1.526-0.047,1.583-1.758,1.082-2.865
			C438.104,400.041,437.745,400.041,437.373,400.041z"/>
		<path display="inline" fill="#E0E0E0" d="M211.216,407.201c-0.35-1.917-2.326-2.205-4.29-2.492v0.255
			c-0.486-0.2-0.955-0.416-1.424-0.569v-0.412c0.049-0.59-2.208-0.59-2.147,0c0.741,0.201,1.012,0.894,2.147,0.728v-0.298
			l1.424,0.562v0.435C207.618,406.631,209.27,408.411,211.216,407.201z"/>
		<path display="inline" fill="#E0E0E0" d="M213.361,409.35c1.406,1.023,3.812,0.691,4.652-0.718
			C217.597,406.896,212.788,406.257,213.361,409.35z"/>
		<path display="inline" fill="#E0E0E0" d="M439.889,408.632c-3.84-0.127-1.822,5.897-0.717,7.165
			c1.031,0.029,2.344-0.203,2.874,0.338c-1.387,1.225-0.188,3.043,0,4.309c0.139,1.009-0.132,1.932,0,2.146
			c0.401,0.785,2.289,1.946,2.853,1.795c2.186-0.555,1.569-4.194-0.361-5.362c0.058-0.887,0.058-1.739-0.354-2.153
			c-1.152-1.24-2.916-1.992-3.57-3.94C440.139,411.573,441.153,409.838,439.889,408.632z"/>
		<path display="inline" fill="#E0E0E0" d="M431.295,441.915c0.129-1.509-1.535-2.371-2.497-2.498
			c-1.013-0.151-1.918,0.541-2.856,0.365c-0.512-0.127-1.406-0.565-1.799-0.737c-0.648-0.258-1.621-0.33-1.782-1.07
			c0.01-1.177,0.603-1.781,0.35-3.225c-1.266-1.182-1.944-1.484-2.5-2.854c-0.731-1.776-0.388-5.52-1.068-6.791
			c-0.619-1.16-2.468-1.584-3.229-2.518c-0.405-0.484-0.491-1.443-0.712-1.786c-0.438-0.692-0.662-0.661-1.076-1.424
			c-0.092-0.292-0.298-0.435-0.713-0.356c-1.654,3.494,3.45,4.731,1.789,8.233c-1.855-0.414-2.217-2.331-4.653-2.149
			c-0.766,1.856,1.541,2.932,2.506,4.283c0.109,0.16-0.092,0.54,0,0.711c0.04,0.121,0.622,0.23,0.709,0.348
			c0.111,0.172-0.079,0.557,0,0.731c0.064,0.126,0.636,0.212,0.714,0.364c0.545,0.934,1.014,2.79,1.438,3.207
			c1.2,1.258,2.768,2.832,3.94,3.584c0.459,0.312,1.271,0.352,1.796,0.711c0.951,0.705,1.253,1.796,2.143,2.146
			c0.404,0.166,1.559-0.181,2.497,0c0.657,0.138,1.248,0.662,1.788,0.724C429.236,442.046,430.144,441.812,431.295,441.915z"/>
		<path display="inline" fill="#E0E0E0" d="M434.164,423.662c-2.453,2.441-4.786,5.004-8.224,6.438
			c-1.208,4.385,3.646,7.176,7.858,6.094c0.776-1.859,2.499-3.938,2.87-5.746c0.183-0.897-0.43-1.82-0.365-2.846
			c0.074-1.154,1.06-1.674,0.718-2.871C436.201,424.252,435.836,423.299,434.164,423.662z"/>
		<path display="inline" fill="#E0E0E0" d="M438.455,432.255c-1.319,1.002-1.393,3.894-0.352,5.366c1.184,0,2.38,0,3.569,0
			c0.372-1.126-0.223-2.995,0-5.004C441.096,432.007,439.57,432.324,438.455,432.255z"/>
		<path display="inline" fill="#E0E0E0" d="M464.22,434.75c-1.782-0.625-3.601-1.195-5.009-1.059
			c-0.938,0.069-1.786,0.883-2.853,0.701c-0.7-0.625-1.032-1.609-1.793-2.139c-0.958,0-2.06-0.143-2.508,0.362
			c0.343,1.513,0.729,2.713,1.785,3.575c0.407,0.328,1.242,0.132,1.783,0.346c0.57,0.24,0.972,0.855,1.443,1.083
			c0.653,0.323,1.252,0.035,1.782,0.353c1.168,0.702,1.016,2.229,1.437,3.594c1.746,0.408,2.768,1.631,4.643,1.416
			c1.306-0.137,1.8-1.595,3.226-1.416c1.892,0.604,2.043,2.951,5.021,2.492c0.561-1.744-2.396-2.773-2.155-5.363
			C468.938,437.163,467.12,435.796,464.22,434.75z"/>
		<path display="inline" fill="#E0E0E0" d="M472.097,459.804c-0.334-0.596-0.37-1.653-0.715-2.144
			c-0.783-1.106-1.896-1.575-2.509-2.871c-1.102-2.285-0.99-4.874-2.143-6.074c-0.823-0.854-0.787-2.387-2.147-2.508
			c-2.066,1.161-0.753,5.702-2.867,6.801c-2.228-0.4-3.832-1.416-4.646-3.224c0.312-0.873,0.834-1.548,0.701-2.854
			c-2.035-1.023-4.164-1.775-6.078-1.074c-1.865,0.67-1.968,3.239-3.941,3.571c-0.78-0.282-1.381-0.762-2.495-0.712
			c-1.797,1.189-2.71,3.254-5.014,3.932c-1.146,5.527-8.31,2.941-10.731,6.799c-0.886,1.402-1.105,4.021-1.076,5.729
			c0.05,2.416,1.232,4.833,1.076,7.521c-0.079,1.229-1.126,2.445-0.714,3.929c0.511,0.209,0.87,0.556,1.073,1.076
			c1.812,0.625,3.378-1.105,5.354-1.438c0.813-0.127,1.936,0.283,2.879,0c1.072-0.337,1.896-1.408,2.852-1.781
			c0.893-0.342,2.222-0.539,3.229-0.721c4.396-0.791,6.527,0,7.511,3.576c1.616,0.77,2.803,1.688,3.567,3.234
			c0.604,1.16,0.476,2.326,1.098,3.565c1.374,1.595,4.583,1.379,6.791,2.15c0.869-1.025,2.696-1.127,3.939-1.786
			c1.126-1.116,1.014-2.557,1.783-3.932c0.084-0.142,0.604-0.211,0.722-0.361c0.203-0.283,0.193-0.823,0.348-1.074
			c0.398-0.602,0.738-1.302,1.08-1.798c0.8-1.129,1.944-1.791,2.498-2.854c0.2-0.369,0.28-1.181,0.359-1.434
			c0.475-1.396,1.288-3.21,1.443-4.645c0.438-4.073-1.103-5.439-2.516-7.883C472.628,460.197,472.235,460.046,472.097,459.804z"/>
		<path display="inline" fill="#E0E0E0" d="M354.368,446.566c-1.097,0.771-1.306,1.947-2.505,2.859
			c-0.637,0.488-1.659,0.357-2.15,0.723c-1.711,1.221-1.021,2.679-1.434,5.004c-0.174,0.963-0.969,1.715-1.062,2.854
			c-0.173,1.712-0.031,2.649,1.062,3.95c3.9,0.796,4.783-3.525,5.727-6.083c1.053-2.867,2.872-6.731,1.436-9.308
			C355.07,446.566,354.711,446.566,354.368,446.566z"/>
		<path display="inline" fill="#E0E0E0" d="M496.427,484.861h-0.712c0.201,3.527-2.59,4.103-1.796,8.225c-1.073,0-2.135,0-3.217,0
			c-1.047,1.111-1.912,2.518-3.212,3.576c-2.349,1.917-6.748,2.599-5.377,6.803c3.671,1.674,4.773-2.579,6.079-3.931
			c0.174-0.171,0.904-0.243,1.084-0.357c0.582-0.394,0.799-0.858,1.062-1.438c0.05-0.103,0.63-0.248,0.725-0.354
			c0.971-1.171,1.772-2.209,2.505-3.229c1.363-0.147,2.582-1.045,3.22-1.786c0.374-0.419,0.412-1.05,0.714-1.422
			c1.144-1.394,1.846-1.331,1.795-2.517C499.204,486.773,497.25,486.514,496.427,484.861z"/>
		<path display="inline" fill="#E0E0E0" d="M460.289,489.505c-1.078,1.004-1.545,3.769-0.359,5.015
			c2.719,0.103,3.69-1.564,3.582-4.289C462.486,489.924,461.293,489.797,460.289,489.505z"/>
	</g>
	<g id="colorangle">
		<g>
			
				<radialGradient id="SVGID_10_" cx="111.3687" cy="290.8291" r="80.3938" gradientTransform="matrix(1 0 0 -1 -4.5 651)" gradientUnits="userSpaceOnUse">
				<stop  offset="0" style="stop-color:#FFCE4E"/>
				<stop  offset="1" style="stop-color:#F5C337"/>
			</radialGradient>
			<path fill="url(#SVGID_10_)" d="M133.117,404.787l-15.423,25.619h7.789c1.844,0,4.134-1.293,5.085-2.881l6.562-10.918
				c0.774-1.603,0.748-3.931-0.138-5.406L133.117,404.787z"/>
			
				<radialGradient id="SVGID_11_" cx="111.3701" cy="290.8281" r="80.392" gradientTransform="matrix(1 0 0 -1 -4.5 651)" gradientUnits="userSpaceOnUse">
				<stop  offset="0" style="stop-color:#0DA960"/>
				<stop  offset="1" style="stop-color:#05924B"/>
			</radialGradient>
			<path fill="url(#SVGID_11_)" d="M126.067,393.117c0.951,1.582,0.951,4.174,0,5.762l-17.322,28.961
				c-0.669,1.432,0.026,2.566,1.745,2.566h7.204l15.423-25.619L126.067,393.117z"/>
			
				<radialGradient id="SVGID_12_" cx="111.3687" cy="290.8276" r="80.3903" gradientTransform="matrix(1 0 0 -1 -4.5 651)" gradientUnits="userSpaceOnUse">
				<stop  offset="0" style="stop-color:#577EC0"/>
				<stop  offset="1" style="stop-color:#557EBF"/>
			</radialGradient>
			<path fill="url(#SVGID_12_)" d="M110.49,361.584c-1.851,0-2.585,1.299-1.634,2.881l28.136,46.736
				c0.886,1.477,0.912,3.805,0.138,5.406l6.84-11.385l-26.271-43.64L110.49,361.584L110.49,361.584z"/>
			
				<radialGradient id="SVGID_13_" cx="111.3711" cy="290.8271" r="80.3859" gradientTransform="matrix(1 0 0 -1 -4.5 651)" gradientUnits="userSpaceOnUse">
				<stop  offset="0" style="stop-color:#E04B3F"/>
				<stop  offset="1" style="stop-color:#CD382D"/>
			</radialGradient>
			<path fill="url(#SVGID_13_)" d="M147.778,393.117l-17.21-28.652c-0.951-1.582-3.241-2.881-5.085-2.881h-7.785l26.271,43.639
				l3.809-6.344C148.73,397.291,148.73,394.699,147.778,393.117z"/>
			
				<linearGradient id="SVGID_14_" gradientUnits="userSpaceOnUse" x1="145.6704" y1="246.1382" x2="126.3039" y2="246.1382" gradientTransform="matrix(1 0 0 -1 -4.5 651)">
				<stop  offset="0" style="stop-color:#231F20;stop-opacity:0.2"/>
				<stop  offset="1" style="stop-color:#F2F2F2;stop-opacity:0.25"/>
			</linearGradient>
			<path fill="url(#SVGID_14_)" d="M136.992,411.201l-10.925-18.084c0.951,1.582,0.951,4.174,0,5.762l-3.846,6.404l14.908,11.324
				C137.904,415.006,137.878,412.678,136.992,411.201z"/>
		</g>
		<g>
			
				<radialGradient id="SVGID_15_" cx="132.9658" cy="255.0049" r="28.1528" gradientTransform="matrix(1 0 0 -1 -4.5 651)" gradientUnits="userSpaceOnUse">
				<stop  offset="0" style="stop-color:#FFFFFF;stop-opacity:0.1"/>
				<stop  offset="0.0896" style="stop-color:#FFFFFF;stop-opacity:0.091"/>
				<stop  offset="1" style="stop-color:#FFFFFF;stop-opacity:0"/>
			</radialGradient>
			<path fill="url(#SVGID_15_)" d="M147.778,393.117l-17.21-28.652c-0.951-1.582-3.241-2.881-5.085-2.881h-7.785h-7.208
				c-1.851,0-2.585,1.299-1.634,2.881l17.211,28.652c0.951,1.582,0.951,4.174,0,5.762l-17.322,28.961
				c-0.669,1.432,0.026,2.566,1.745,2.566h7.204h7.789c1.844,0,4.134-1.293,5.085-2.881l13.401-22.303l3.809-6.345
				C148.73,397.291,148.73,394.699,147.778,393.117z"/>
		</g>
	</g>
	
		<text id="title" editable="simple" transform="matrix(1 0 0 1 284.1201 412.0566)" fill="#4D4D4D" enable-background="new    " font-family="'OpenSans-Semibold'" font-size="46" letter-spacing="-1">SSU</text>
	<g id="GDG">
		<g>
			<path fill="#4D4D4D" d="M239.128,407.537"/>
			<path fill="#4D4D4D" d="M179.832,393.201h14.084v17.604c-3.826,1.312-8.025,1.963-12.617,1.963
				c-5.026,0-8.913-1.457-11.663-4.373c-2.751-2.916-4.117-7.084-4.117-12.491c0-5.264,1.499-9.359,4.51-12.295
				c3.008-2.938,7.218-4.385,12.637-4.385c2.057,0,3.99,0.186,5.81,0.578c1.833,0.383,3.425,0.869,4.78,1.459l-2.804,6.918
				c-2.348-1.16-4.932-1.738-7.746-1.738c-2.564,0-4.56,0.848-5.966,2.514c-1.417,1.676-2.109,4.062-2.109,7.178
				c0,3.052,0.63,5.377,1.913,6.979c1.261,1.604,3.091,2.391,5.491,2.391c1.313,0,2.522-0.115,3.618-0.375v-5.107h-5.82
				L179.832,393.201L179.832,393.201z"/>
			<path fill="#4D4D4D" d="M217.286,395.623c0-3-0.589-5.213-1.768-6.66c-1.18-1.438-2.989-2.162-5.397-2.162h-2.565v18.285h1.966
				c2.688,0,4.652-0.777,5.894-2.338C216.667,401.207,217.286,398.818,217.286,395.623 M226.438,395.312
				c0,5.439-1.488,9.639-4.497,12.586c-2.989,2.946-7.207,4.416-12.637,4.416h-10.558v-32.64h11.292
				c5.231,0,9.276,1.346,12.129,4.023C225.021,386.369,226.438,390.246,226.438,395.312"/>
			<path fill="#4D4D4D" d="M243.563,393.201h14.096v17.604c-3.827,1.312-8.035,1.963-12.616,1.963
				c-5.026,0-8.915-1.457-11.666-4.373c-2.74-2.916-4.114-7.084-4.114-12.491c0-5.264,1.498-9.359,4.507-12.295
				c3-2.938,7.218-4.385,12.638-4.385c2.048,0,3.992,0.186,5.822,0.578c1.81,0.383,3.403,0.869,4.756,1.459l-2.79,6.918
				c-2.348-1.16-4.935-1.738-7.746-1.738c-2.576,0-4.561,0.848-5.977,2.514c-1.397,1.676-2.101,4.062-2.101,7.178
				c0,3.052,0.631,5.377,1.902,6.979c1.272,1.604,3.103,2.391,5.501,2.391c1.313,0,2.525-0.115,3.621-0.375v-5.107h-5.833V393.201
				L243.563,393.201z"/>
		</g>
	</g>
</g>
</svg>
